<svg xmlns="http://www.w3.org/2000/svg" width="72" height="72.054" viewBox="0 0 72 72.054">
  <g id="barbecue" transform="translate(-0.999 -0.996)">
    <path id="Path_238" data-name="Path 238" d="M31.925,47.825,25.561,66.917a1.742,1.742,0,1,0,3.3,1.1l1.925-5.775h12.1v5.226a1.742,1.742,0,0,0,3.484,0V62.243h12.1L60.4,68.019a1.742,1.742,0,1,0,3.3-1.1L57.342,47.826a25.42,25.42,0,0,0,12.7-19.521A3.484,3.484,0,0,0,66.571,24.5H22.695a3.484,3.484,0,0,0-3.476,3.807A25.417,25.417,0,0,0,31.925,47.825ZM46.374,58.759v-7.63a25.572,25.572,0,0,0,7.809-1.759l3.131,9.389ZM44.632,44.242a18.529,18.529,0,0,0,18.062-14.21,1.161,1.161,0,0,1,2.258.547,20.846,20.846,0,0,1-20.32,15.986,1.161,1.161,0,0,1,0-2.323ZM35.082,49.37a25.556,25.556,0,0,0,7.809,1.758v7.631H31.951Z" transform="translate(2.937 3.792)" fill="#fe043c"/>
    <g id="Group_69" data-name="Group 69" transform="translate(0.999 0.996)">
      <path id="Path_239" data-name="Path 239" d="M37.8,1C34.214.875,20.046,2.991,16.015,15.643A20.529,20.529,0,0,1,8.455,25.6,18.572,18.572,0,0,0,1.032,41.58a18.822,18.822,0,0,0,18.99,17.479,42.834,42.834,0,0,0,24.791-7.8,34.1,34.1,0,0,0,14.254-27.7C59.066,11.54,49.528,1.423,37.8,1Zm5.658,48.359A40.424,40.424,0,0,1,20.022,56.73,16.491,16.491,0,0,1,3.351,41.446a16.259,16.259,0,0,1,6.5-13.99,22.819,22.819,0,0,0,8.382-11.108C21.714,5.4,33.831,3.323,37.439,3.323h.282C48.21,3.7,56.744,12.777,56.744,23.558A31.777,31.777,0,0,1,43.463,49.365Z" transform="translate(-0.999 -0.996)" fill="#2d3748"/>
      <path id="Path_240" data-name="Path 240" d="M36.846,5c-.135,0-13.575.49-17.049,11.407a25.119,25.119,0,0,1-9.2,12.262,13.936,13.936,0,0,0-5.574,12,14.175,14.175,0,0,0,14.357,13.1,37.966,37.966,0,0,0,22.09-6.938,29.449,29.449,0,0,0,12.31-23.917A17.884,17.884,0,0,0,36.845,5Zm3.273,39.94a35.626,35.626,0,0,1-20.741,6.5A11.845,11.845,0,0,1,7.343,40.536a11.625,11.625,0,0,1,4.645-10A27.419,27.419,0,0,0,22.013,17.115C24.984,7.767,36.75,7.323,36.8,7.323a15.534,15.534,0,0,1,14.649,15.59A27.127,27.127,0,0,1,40.118,44.94Z" transform="translate(-0.354 -0.35)" fill="#2d3748"/>
      <path id="Path_241" data-name="Path 241" d="M33.129,12.993a8.129,8.129,0,1,0,8.129,8.129A8.129,8.129,0,0,0,33.129,12.993Zm0,13.936a5.807,5.807,0,1,1,5.807-5.807A5.807,5.807,0,0,1,33.129,26.929Z" transform="translate(2.873 0.94)" fill="#2d3748"/>
      <path id="Path_242" data-name="Path 242" d="M13.982,32.333a1.161,1.161,0,1,0-1.642,1.642l6.387,6.387A1.161,1.161,0,1,0,20.37,38.72Z" transform="translate(0.776 4.005)" fill="#2d3748"/>
      <path id="Path_243" data-name="Path 243" d="M16.982,28.333a1.161,1.161,0,1,0-1.642,1.642L25.792,40.427a1.161,1.161,0,1,0,1.642-1.642Z" transform="translate(1.26 3.36)" fill="#2d3748"/>
      <path id="Path_244" data-name="Path 244" d="M20.982,25.333a1.161,1.161,0,1,0-1.642,1.642L29.792,37.427a1.161,1.161,0,1,0,1.642-1.642Z" transform="translate(1.905 2.876)" fill="#2d3748"/>
    </g>
  </g>
</svg>
