<svg xmlns="http://www.w3.org/2000/svg" width="72" height="71.998" viewBox="0 0 72 71.998">
  <g id="burger" transform="translate(-0.999 -1)">
    <g id="Group_68" data-name="Group 68" transform="translate(29.325 7.968)">
      <path id="Path_232" data-name="Path 232" d="M67.207,21.386A3.484,3.484,0,0,0,63.908,19H30.094a3.484,3.484,0,0,0-3.3,2.386l-1.286,3.851a2.323,2.323,0,0,0,2.2,3.053H66.292A2.323,2.323,0,0,0,68.5,25.233Z" transform="translate(-25.392 -5.065)" fill="#fe043c"/>
      <path id="Path_233" data-name="Path 233" d="M34.832,68.483H58.545a3.484,3.484,0,0,0,3.462-3.1L66.051,29H27.327l4.044,36.384A3.484,3.484,0,0,0,34.832,68.483Zm3.394-27.638,5.128-.746,2.293-4.645a1.209,1.209,0,0,1,2.081,0L50.023,40.1l5.128.746a1.161,1.161,0,0,1,.645,1.981l-3.716,3.616.876,5.11a1.161,1.161,0,0,1-1.685,1.224l-4.581-2.408L42.1,52.778a1.161,1.161,0,0,1-1.685-1.224l.876-5.11-3.716-3.616a1.161,1.161,0,0,1,.649-1.983Z" transform="translate(-25.079 -3.452)" fill="#fe043c"/>
      <path id="Path_234" data-name="Path 234" d="M64.109,7H47.343a3.484,3.484,0,0,0-3.381,2.639L41.72,18.613H51.931l.388-2.323h11.79a2.323,2.323,0,0,0,2.323-2.323V9.323A2.323,2.323,0,0,0,64.109,7Z" transform="translate(-22.758 -7)" fill="#fe043c"/>
    </g>
    <path id="Path_235" data-name="Path 235" d="M42.806,1H17.258A16.275,16.275,0,0,0,1,17.258a3.484,3.484,0,0,0,3.484,3.484h51.1a3.484,3.484,0,0,0,3.484-3.484A16.275,16.275,0,0,0,42.806,1ZM55.579,18.419H4.484a1.161,1.161,0,0,1-1.161-1.161A13.95,13.95,0,0,1,17.258,3.323H42.806A13.95,13.95,0,0,1,56.741,17.258,1.161,1.161,0,0,1,55.579,18.419Z" transform="translate(0)" fill="#2d3748"/>
    <path id="Path_236" data-name="Path 236" d="M55.712,25H4.352A3.355,3.355,0,0,0,1,28.351v4.91a3.327,3.327,0,0,0,.877,2.24,3.328,3.328,0,0,0-.83,1.692A3.45,3.45,0,0,0,1.9,40.1,3.458,3.458,0,0,0,1,42.419,12.789,12.789,0,0,0,13.774,55.193H46.29A12.789,12.789,0,0,0,59.063,42.419a3.463,3.463,0,0,0-.916-2.335,3.327,3.327,0,0,0,.87-1.729,3.472,3.472,0,0,0-.813-2.866,3.317,3.317,0,0,0,.859-2.227v-4.91A3.355,3.355,0,0,0,55.712,25Zm1.011,12.977a1.258,1.258,0,0,1-1.268.958H51.637a3.477,3.477,0,0,0-1.932.581l-8.577,5.718a1.161,1.161,0,0,1-1.289,0l-8.576-5.718a3.472,3.472,0,0,0-1.928-.581H4.484A1.161,1.161,0,0,1,3.34,37.571a1.258,1.258,0,0,1,1.268-.958H55.58a1.161,1.161,0,0,1,1.144,1.364ZM55.58,41.258a1.161,1.161,0,0,1,1.161,1.161A10.463,10.463,0,0,1,46.29,52.87H13.774A10.463,10.463,0,0,1,3.323,42.419a1.161,1.161,0,0,1,1.161-1.161H29.335a1.154,1.154,0,0,1,.643.2l8.578,5.718a3.472,3.472,0,0,0,3.865,0L51,41.453a1.154,1.154,0,0,1,.638-.2ZM4.352,34.29a1.029,1.029,0,0,1-1.029-1.029v-4.91a1.029,1.029,0,0,1,1.029-1.029h51.36a1.029,1.029,0,0,1,1.029,1.029v4.91a1.029,1.029,0,0,1-1.029,1.029Z" transform="translate(0 3.87)" fill="#2d3748"/>
    <path id="Path_237" data-name="Path 237" d="M57.9,19c-4.993,0-5.288,3.484-9.29,3.484-4.04,0-4.246-3.484-9.29-3.484-4.993,0-5.284,3.484-9.29,3.484-4.038,0-4.243-3.484-9.29-3.484-4.993,0-5.284,3.484-9.29,3.484C7.415,22.484,7.215,19,2.161,19a1.161,1.161,0,0,0,0,2.323c4.037,0,4.236,3.484,9.29,3.484,4.993,0,5.284-3.484,9.29-3.484,4.038,0,4.244,3.484,9.29,3.484,4.993,0,5.284-3.484,9.29-3.484,4.04,0,4.247,3.484,9.29,3.484,5,0,5.288-3.484,9.29-3.484A1.161,1.161,0,0,0,57.9,19Z" transform="translate(0 2.903)" fill="#2d3748"/>
  </g>
</svg>
