<svg xmlns="http://www.w3.org/2000/svg" width="69" height="72.516" viewBox="0 0 69 72.516">
  <g id="cake" transform="translate(-2.5 -0.994)">
    <path id="Path_261" data-name="Path 261" d="M65.11,36.732h-.644A19.18,19.18,0,0,0,48.14,18.949a5.029,5.029,0,1,0-8.161,0A19.18,19.18,0,0,0,23.653,36.732h-.644a3.508,3.508,0,1,0,0,7.017h.137L26.25,68.783a3.526,3.526,0,0,0,3.478,3.034H58.39a3.528,3.528,0,0,0,3.479-3.048l3.1-25.02h.137a3.508,3.508,0,1,0,0-7.017ZM44.059,13.342a2.69,2.69,0,1,1-2.69,2.69A2.69,2.69,0,0,1,44.059,13.342ZM33.6,68.308h-.065a1.169,1.169,0,0,1-1.169-1.1L31.195,46.154a1.169,1.169,0,0,1,1.1-1.235,1.155,1.155,0,0,1,1.233,1.1L34.7,67.071a1.169,1.169,0,0,1-1.1,1.237Zm11.629-1.169a1.169,1.169,0,1,1-2.339,0V46.088a1.169,1.169,0,0,1,2.339,0Zm10.525.065a1.169,1.169,0,0,1-1.169,1.1h-.067a1.17,1.17,0,0,1-1.1-1.233l1.169-21.051a1.145,1.145,0,0,1,1.234-1.106,1.169,1.169,0,0,1,1.1,1.233ZM65.11,41.41h-42.1a1.169,1.169,0,1,1,0-2.339h42.1a1.169,1.169,0,1,1,0,2.339Z" transform="translate(2.881 1.693)" fill="#fe043c"/>
    <path id="Path_262" data-name="Path 262" d="M51.5,20.36,43.315,3.979a5.388,5.388,0,0,0-7.032-2.51L29.115,4.686A6.231,6.231,0,0,0,26,4.731,11.083,11.083,0,0,0,17.7,1a1.169,1.169,0,1,0,0,2.339A8.758,8.758,0,0,1,23.8,5.8,6.467,6.467,0,0,0,21.988,7.88l-15.6,6.991A6.6,6.6,0,0,0,2.5,20.882V41.933a3.508,3.508,0,0,0,3.508,3.508h42.1a3.508,3.508,0,0,0,3.508-3.508V20.882a3.328,3.328,0,0,0-.117-.523ZM49.28,36.086H4.839V29.069H30.568a4.678,4.678,0,0,0,9.356,0H49.28ZM4.839,22.052H30.568V26.73H4.839ZM39.924,26.73V22.052H49.28V26.73ZM31.737,10.942a4.093,4.093,0,1,1-4.093-4.093,4.093,4.093,0,0,1,4.093,4.093ZM7.349,17.006,21.22,10.787c0,.051-.008.1-.008.154A6.432,6.432,0,1,0,31.8,6.044L37.24,3.607a3.05,3.05,0,0,1,3.97,1.417l7.347,14.689h-9.8a1.169,1.169,0,0,0-1.169,1.169v8.186a2.339,2.339,0,1,1-4.678,0V20.882a1.169,1.169,0,0,0-1.169-1.169H5.006a4.256,4.256,0,0,1,2.342-2.707ZM48.11,43.1H6.008a1.169,1.169,0,0,1-1.169-1.169V38.425H49.28v3.508A1.169,1.169,0,0,1,48.11,43.1Z" fill="#2d3748"/>
  </g>
</svg>
