<svg xmlns="http://www.w3.org/2000/svg" width="72" height="72.212" viewBox="0 0 72 72.212">
  <g id="coffee-cups" transform="translate(-1 -1)">
    <path id="Path_258" data-name="Path 258" d="M69.046,39.449a1.161,1.161,0,0,0-1.687-.734,6.935,6.935,0,0,1-10.234-7.2A1.161,1.161,0,0,0,55.8,30.189a6.914,6.914,0,0,1-7.985-7.815,1.161,1.161,0,0,0-1.088-1.315c-.573-.031-.934-.059-1.306-.059A24.493,24.493,0,1,0,69.046,39.449ZM39.726,28.61l1.161-2.323a1.162,1.162,0,1,1,2.079,1.038L41.8,29.648a1.162,1.162,0,0,1-2.079-1.038ZM30.2,48.228l-1.161,2.323a1.162,1.162,0,1,1-2.079-1.038l1.161-2.323A1.162,1.162,0,1,1,30.2,48.228Zm3.073-15.39a1.161,1.161,0,0,1,1.51-.632l2.4.987a1.162,1.162,0,1,1-.883,2.149l-2.4-.988a1.161,1.161,0,0,1-.633-1.517Zm5.711,25.1a1.161,1.161,0,0,1-1.517.632l-2.407-.988a1.162,1.162,0,0,1,.885-2.148l2.4.989a1.161,1.161,0,0,1,.632,1.515Zm13.28.743L51.106,61a1.162,1.162,0,1,1-2.079-1.038l1.161-2.323a1.162,1.162,0,0,1,2.079,1.038Zm-6.851-5.164a8.129,8.129,0,1,1,8.129-8.129,8.129,8.129,0,0,1-8.129,8.129ZM62.207,52.13a1.161,1.161,0,0,1-1.517.632l-2.4-.988a1.162,1.162,0,0,1,.885-2.148l2.4.989A1.161,1.161,0,0,1,62.207,52.13Z" transform="translate(3.195 3.225)" fill="#fe043c"/>
    <g id="Group_71" data-name="Group 71" transform="translate(1 1)">
      <path id="Path_259" data-name="Path 259" d="M37,12.613a3.484,3.484,0,0,0,0-6.968H33.515V4.484A3.484,3.484,0,0,0,30.031,1H11.451A3.484,3.484,0,0,0,7.968,4.484V5.645H4.484a3.484,3.484,0,1,0,0,6.968h.07l.388,6.2a2.376,2.376,0,0,0-.409.339A2.334,2.334,0,0,0,3.9,20.887l1.161,18.58A2.323,2.323,0,0,0,6.353,41.39l.319,5.117a3.484,3.484,0,0,0,3.477,3.267H31.333a3.484,3.484,0,0,0,3.477-3.265l.319-5.118a2.323,2.323,0,0,0,1.289-1.923l1.161-18.58a2.334,2.334,0,0,0-.625-1.735,2.376,2.376,0,0,0-.409-.339l.383-6.2ZM10.29,4.484a1.161,1.161,0,0,1,1.161-1.161h18.58a1.161,1.161,0,0,1,1.161,1.161V5.645H10.29ZM3.323,9.129A1.161,1.161,0,0,1,4.484,7.968H37a1.161,1.161,0,0,1,0,2.323H4.484A1.161,1.161,0,0,1,3.323,9.129ZM35.249,20.741h.008L34.1,39.322H7.387L6.226,20.741H35.249ZM31.333,47.45H10.15a1.161,1.161,0,0,1-1.161-1.088L8.7,41.644H32.787l-.295,4.718a1.161,1.161,0,0,1-1.159,1.088Zm2.9-29.031H7.244l-.363-5.806H34.6Z" transform="translate(-1 -1)" fill="#2d3748"/>
      <path id="Path_260" data-name="Path 260" d="M23,31c2.555-2.555,3.241-6.613.821-9.033s-6.489-1.723-9.031.821-3.241,6.619-.821,9.033S20.45,33.545,23,31Zm-1.642-1.642A4.782,4.782,0,0,1,16.628,30.8L22.8,24.627a4.781,4.781,0,0,1-1.442,4.729Zm-4.926-4.928a4.8,4.8,0,0,1,4.731-1.446l-6.173,6.174a4.781,4.781,0,0,1,1.442-4.729Z" transform="translate(0.85 2.14)" fill="#2d3748"/>
    </g>
  </g>
</svg>
