<svg xmlns="http://www.w3.org/2000/svg" width="72.01" height="72.414" viewBox="0 0 72.01 72.414">
  <g id="soft-drink" transform="translate(-6.986 -0.982)">
    <g id="Group_70" data-name="Group 70" transform="translate(38.201 14.591)">
      <path id="Path_250" data-name="Path 250" d="M60.2,29H26.6a3.6,3.6,0,0,0,0,7.2H60.2a3.6,3.6,0,0,0,0-7.2Z" transform="translate(-23 -10.991)" fill="#fe043c"/>
      <path id="Path_251" data-name="Path 251" d="M48.976,29.6a8.368,8.368,0,0,0-5.657-11.77,2.4,2.4,0,1,0-3.84,0A8.368,8.368,0,0,0,33.822,29.6Z" transform="translate(-21.001 -13.991)" fill="#fe043c"/>
      <path id="Path_252" data-name="Path 252" d="M48.657,28.594H55.2a8.324,8.324,0,0,0-7.712-9.569,10.616,10.616,0,0,1,1.164,9.569Z" transform="translate(-18.104 -12.985)" fill="#fe043c"/>
      <path id="Path_253" data-name="Path 253" d="M32.644,28.594a10.616,10.616,0,0,1,1.164-9.569A8.324,8.324,0,0,0,26.1,28.594Z" transform="translate(-22.4 -12.985)" fill="#fe043c"/>
      <path id="Path_254" data-name="Path 254" d="M36.253,37l2.6,31.2h3.793l2.6-31.2Z" transform="translate(-20.351 -9.392)" fill="#fe043c"/>
      <path id="Path_255" data-name="Path 255" d="M43.586,68.2h1.7a1.2,1.2,0,0,0,1.164-.908L54.018,37H46.186Z" transform="translate(-18.885 -9.392)" fill="#fe043c"/>
      <path id="Path_256" data-name="Path 256" d="M27.72,37l7.571,30.288a1.2,1.2,0,0,0,1.164.908h1.7L35.552,37Z" transform="translate(-22.057 -9.392)" fill="#fe043c"/>
    </g>
    <path id="Path_257" data-name="Path 257" d="M57.121,12.57A1.2,1.2,0,0,0,56.2,10.6H16.7L9.129,1.439A1.2,1.2,0,1,0,7.28,2.968L13.591,10.6H8.2a1.2,1.2,0,0,0-.922,1.968L31,41.034V58.6H28.6a1.2,1.2,0,1,0,0,2.4h7.2a1.2,1.2,0,0,0,0-2.4H33.4V41.034ZM53.642,13l-5.919,7.1c-3.678-.428-4.476-2.3-9.757-2.3-5.743,0-6.344,2.4-11.519,2.4a14.638,14.638,0,0,1-1.9-.12L18.689,13ZM14.789,17.829,10.766,13h4.81l4.766,5.765a13.542,13.542,0,0,0-5.553-.938ZM32.2,38.725l-15.334-18.4a12.09,12.09,0,0,1,3.36.986,15.6,15.6,0,0,0,3.037.993l8.013,9.69a1.2,1.2,0,0,0,1.849-1.529l-6.5-7.862c5.671-.049,6.154-2.4,11.344-2.4,4.153,0,4.946,1.32,7.982,2.029Z" transform="translate(0)" fill="#2d3748"/>
  </g>
</svg>
