<svg xmlns="http://www.w3.org/2000/svg" width="72" height="69.677" viewBox="0 0 72 69.677">
  <g id="spaghetti" transform="translate(-1 -2)">
    <path id="Path_245" data-name="Path 245" d="M44.9,17.806H57.677a2.9,2.9,0,0,0,0-5.806H44.9a2.9,2.9,0,0,0,0,5.806Z" transform="translate(6.613 1.613)" fill="#fe043c"/>
    <path id="Path_246" data-name="Path 246" d="M62.425,32.449a5.541,5.541,0,0,1-3.361-5.1V20.161A1.161,1.161,0,0,0,57.9,19H46.29a1.161,1.161,0,0,0-1.161,1.161v7.191a5.541,5.541,0,0,1-3.361,5.1A7.858,7.858,0,0,0,37,39.68V65.452a3.484,3.484,0,0,0,3.484,3.484H63.71a3.484,3.484,0,0,0,3.484-3.484V63.129H49.774a3.484,3.484,0,0,1-3.484-3.484V43.387A3.484,3.484,0,0,1,49.774,39.9H67.194V39.68a7.858,7.858,0,0,0-4.768-7.231Z" transform="translate(5.806 2.742)" fill="#fe043c"/>
    <path id="Path_247" data-name="Path 247" d="M58.667,46.922c.359-.741-.971-2.2-1.812-2.112-.232.021-.444.207-.625.553a15.608,15.608,0,0,1-1.852,5.508,7.731,7.731,0,0,0,4.289-3.948Z" transform="translate(8.609 6.904)" fill="#fe043c"/>
    <path id="Path_248" data-name="Path 248" d="M47,40.161V56.419a1.161,1.161,0,0,0,1.161,1.161H65.581V39H48.161A1.161,1.161,0,0,0,47,40.161Zm4.126,12.89c3.54-1.769,3.924-7.161,4.105-7.566a3.135,3.135,0,0,1,2.611-2.059,3.252,3.252,0,0,1,1.481.219l.512-1.535a1.163,1.163,0,1,1,2.206.734l-.758,2.276a3.426,3.426,0,0,1,.7,3.682c-2.206,5.529-9.881,6.407-10.208,6.443a1.161,1.161,0,0,1-.646-2.189Z" transform="translate(7.419 5.968)" fill="#fe043c"/>
    <path id="Path_249" data-name="Path 249" d="M57.9,36.839H54.36A16.258,16.258,0,0,0,40.484,21.928V5.484A3.484,3.484,0,0,0,37,2H23.065a3.484,3.484,0,0,0-3.27,2.323H15.781a4.63,4.63,0,0,0-3.613,1.742H2.161a1.161,1.161,0,1,0,0,2.323H12.779a1.161,1.161,0,0,0,1.008-.581,2.3,2.3,0,0,1,1.994-1.161h3.8v5.806h-3.8a2.3,2.3,0,0,1-1.994-1.161,1.161,1.161,0,0,0-1.008-.581H2.161a1.161,1.161,0,1,0,0,2.323H12.168a4.627,4.627,0,0,0,3.613,1.742h3.8v7.154A16.258,16.258,0,0,0,5.7,36.839H2.161A1.161,1.161,0,0,0,1,38a8.138,8.138,0,0,0,8.129,8.129H50.935A8.138,8.138,0,0,0,59.065,38,1.161,1.161,0,0,0,57.9,36.839Zm-5.866,0H49.715A11.582,11.582,0,0,0,34,27.172a16.405,16.405,0,0,0-1.815-1.756A13.919,13.919,0,0,1,52.038,36.839Zm-13.935,0a16.162,16.162,0,0,0-.61-3.421,4.761,4.761,0,0,1,.669-.063,4.645,4.645,0,0,1,4.48,3.484Zm6.922,0a6.893,6.893,0,0,0-8.373-5.628,16.187,16.187,0,0,0-1.161-2.1,9.252,9.252,0,0,1,11.881,7.73ZM31.194,23.315V4.323h2.323v18.1a16.143,16.143,0,0,0-2.323.9Zm-2.323.017a16.1,16.1,0,0,0-2.323-.906V4.323h2.323Zm9.29-17.849V21.742a16.286,16.286,0,0,0-2.326.167l0-17.586H37A1.161,1.161,0,0,1,38.161,5.484Zm-16.258,0a1.161,1.161,0,0,1,1.161-1.161h1.161V21.928a16.124,16.124,0,0,0-2.323-.186Zm0,18.581A13.947,13.947,0,0,1,35.779,36.839H33.457a11.613,11.613,0,0,0-23.11,0H8.025A13.947,13.947,0,0,1,21.9,24.065Zm6.863,12.774a6.96,6.96,0,0,0-13.726,0H12.693a9.282,9.282,0,0,1,18.42,0Zm-2.383,0H17.423a4.623,4.623,0,0,1,8.961,0Zm24.552,6.968H9.129a5.816,5.816,0,0,1-5.69-4.645H56.626a5.816,5.816,0,0,1-5.69,4.645Z" transform="translate(0)" fill="#2d3748"/>
  </g>
</svg>
